<svg width="20" height="20" viewBox="0 0 20 20" fill="none" xmlns="http://www.w3.org/2000/svg">
<path d="M13.3696 1.66663H6.6334C3.89293 1.66663 1.66667 3.89288 1.66667 6.63335V13.3696C1.66667 16.107 3.89293 18.3333 6.6334 18.3333H13.3696C16.1071 18.3333 18.3364 16.107 18.3364 13.3666V6.63335C18.3333 3.89288 16.1071 1.66663 13.3696 1.66663ZM16.6576 13.3696C16.6576 15.1845 15.1845 16.6576 13.3696 16.6576H6.6334C4.81852 16.6576 3.34544 15.1845 3.34544 13.3696V6.63335C3.34544 4.81847 4.81852 3.34539 6.6334 3.34539H13.3696C15.1845 3.34539 16.6576 4.81847 16.6576 6.63335V13.3696Z" fill="black"/>
<path d="M9.99998 5.68958C7.62249 5.68958 5.68964 7.62242 5.68964 9.99992C5.68964 12.3774 7.62249 14.3103 9.99998 14.3103C12.3775 14.3103 14.3103 12.3774 14.3103 9.99992C14.3103 7.62242 12.3775 5.68958 9.99998 5.68958ZM9.99998 12.6345C8.54505 12.6345 7.36538 11.4549 7.36538 9.99992C7.36538 8.54499 8.54505 7.36532 9.99998 7.36532C11.4549 7.36532 12.6346 8.54499 12.6346 9.99992C12.6346 11.4549 11.4549 12.6345 9.99998 12.6345Z" fill="black"/>
<path d="M14.3194 6.75432C14.8891 6.75432 15.3509 6.29252 15.3509 5.72286C15.3509 5.15321 14.8891 4.69141 14.3194 4.69141C13.7498 4.69141 13.288 5.15321 13.288 5.72286C13.288 6.29252 13.7498 6.75432 14.3194 6.75432Z" fill="black"/>
</svg>
