<svg width="20" height="20" viewBox="0 0 20 20" fill="none" xmlns="http://www.w3.org/2000/svg">
<path d="M3.67173 0.416626C2.56181 0.416626 1.66672 1.31172 1.66672 2.42164C1.66672 3.53156 2.56181 4.42665 3.67173 4.42665C4.78165 4.42665 5.67674 3.53156 5.67674 2.42164C5.67674 1.31172 4.78165 0.416626 3.67173 0.416626Z" fill="black"/>
<path d="M5.38871 5.9303H1.93364V17.0474H5.38871V5.9303Z" fill="black"/>
<path d="M14.1791 5.66174C12.4963 5.66174 11.3685 6.57474 10.9209 7.45193H10.8672V5.93027H7.55539V17.0474H11.0105V11.5515C11.0105 10.1014 11.279 8.70507 13.0871 8.70507C14.8594 8.70507 14.8773 10.3699 14.8773 11.6589V17.0474H18.3323V10.9607C18.3323 7.95319 17.6879 5.66174 14.1791 5.66174Z" fill="black"/>
</svg>
