<svg width="20" height="20" viewBox="0 0 20 20" fill="none" xmlns="http://www.w3.org/2000/svg">
<path d="M19.1667 4.26344C18.4849 4.5625 17.7584 4.76073 17.001 4.85698C17.7802 4.39177 18.3749 3.66073 18.6545 2.77958C17.928 3.21271 17.1259 3.51865 16.2711 3.68938C15.5813 2.9549 14.5982 2.5 13.5257 2.5C11.4449 2.5 9.76968 4.18896 9.76968 6.25948C9.76968 6.5574 9.79489 6.84385 9.85676 7.11656C6.73208 6.96417 3.96718 5.46656 2.10979 3.18521C1.78552 3.74781 1.59531 4.39177 1.59531 5.085C1.59531 6.38667 2.26562 7.54052 3.26479 8.20854C2.66093 8.19708 2.06854 8.02177 1.56666 7.74563C1.56666 7.75708 1.56666 7.77198 1.56666 7.78687C1.56666 9.61333 2.86947 11.1304 4.57791 11.4799C4.27197 11.5635 3.93854 11.6036 3.59249 11.6036C3.35187 11.6036 3.10895 11.5899 2.88093 11.5395C3.36791 13.0279 4.74979 14.1222 6.39291 14.1577C5.11416 15.158 3.49052 15.7607 1.73281 15.7607C1.42458 15.7607 1.12895 15.747 0.833328 15.7092C2.49822 16.7828 4.47135 17.3958 6.59916 17.3958C13.5154 17.3958 17.2967 11.6667 17.2967 6.70062C17.2967 6.53448 17.2909 6.37406 17.2829 6.21479C18.0288 5.68542 18.6556 5.02427 19.1667 4.26344Z" fill="black"/>
</svg>
