<svg width="20" height="20" viewBox="0 0 20 20" fill="none" xmlns="http://www.w3.org/2000/svg">
<path d="M18.2096 6.31189V6.30538C18.1966 6.17192 18.0534 4.97725 17.474 4.37179C16.8034 3.65564 16.0449 3.571 15.6803 3.52869C15.651 3.52543 15.6217 3.52218 15.599 3.51892L15.5697 3.51567C13.3626 3.35616 10.0358 3.33337 10.0033 3.33337H10H9.99675C9.9642 3.33337 6.63737 3.35616 4.41407 3.51567L4.38477 3.51892C4.36198 3.52218 4.33594 3.52543 4.30665 3.52869C3.94532 3.571 3.19336 3.65564 2.51954 4.39783C1.96615 4.99679 1.80665 6.16541 1.79037 6.29561L1.78711 6.31189C1.78386 6.36723 1.66667 7.69861 1.66667 9.03324V10.28C1.66667 11.6146 1.78386 12.9427 1.79037 12.9981V13.0079C1.80339 13.1413 1.94336 14.3099 2.52279 14.9187C3.1543 15.6088 3.95183 15.6999 4.37826 15.7487C4.44662 15.7552 4.50521 15.7618 4.54428 15.7715L4.58334 15.778C5.85612 15.8985 9.84375 15.9603 10.013 15.9603H10.0195H10.026C10.0586 15.9603 13.3854 15.9375 15.5892 15.778L15.6185 15.7748C15.6478 15.7715 15.6771 15.7683 15.7129 15.765C16.071 15.726 16.8197 15.6478 17.4837 14.9187C18.0371 14.3197 18.1966 13.1511 18.2129 13.0209L18.2161 13.0046C18.2227 12.9493 18.3398 11.6211 18.3398 10.2865V9.03975C18.3333 7.69861 18.2161 6.36723 18.2096 6.31189ZM12.5586 10.0879L8.87696 12.0671C8.77605 12.1224 8.66862 12.1485 8.55795 12.1485C8.4375 12.1485 8.31706 12.1159 8.20964 12.0508C8.00456 11.9271 7.88086 11.7123 7.88086 11.4714V7.48051C7.88086 7.23962 8.00456 7.02152 8.21289 6.89783C8.42123 6.77413 8.67188 6.76762 8.88347 6.88481L12.5651 8.89978C12.7832 9.02022 12.9167 9.24809 12.9134 9.49548C12.9134 9.74288 12.7767 9.97074 12.5586 10.0879Z" fill="black"/>
</svg>
